<svg xmlns="http://www.w3.org/2000/svg" viewBox="0 0 24 24" fill="currentColor">
  <path d="M4.5 9.75a.75.75 0 01.75-.75h.75c4.284 0 8.06 2.72 9.344 6.75h3.656a.75.75 0 01.75.75v.75a3.75 3.75 0 01-3.75 3.75H15a.75.75 0 01-.75-.75v-3a.75.75 0 01.75-.75h3.375A7.476 7.476 0 0015 9.75H5.25a.75.75 0 01-.75-.75zM15 18a.75.75 0 00-.75.75V21a.75.75 0 00.75.75h3.75A5.25 5.25 0 0024 16.5v-.75a3 3 0 00-3-3h-3.764a9.015 9.015 0 01-1.072 5.25H15z"/>
  <path d="M0 13.5a.75.75 0 01.75-.75H3a6 6 0 0112 0h2.25a.75.75 0 010 1.5H15a6 6 0 01-12 0H.75a.75.75 0 01-.75-.75z"/>
</svg>